<?xml version="1.0" encoding="UTF-8"?>
<svg id="Layer_1" data-name="Layer 1" xmlns="http://www.w3.org/2000/svg" viewBox="0 0 661.14451 661.14451">
  <defs>
    <style>
      .cls-1 {
        fill: #fff;
        stroke-width: 0px;
      }
    </style>
  </defs>
  <g>
    <g>
      <path class="cls-1" d="m177.25217,423.19264c0,27.77971,24.57277,50.37905,54.77661,50.37905h111.64489c6.54279,0,11.84491,4.88021,11.84491,10.89742s-5.30211,10.89384-11.84491,10.89384h-38.51632c-4.97677.25743-11.9521,1.76614-16.37474,11.06183-3.01748,6.34968-3.2964,12.98184-3.31428,13.55022v60.06452c0,6.01721-5.30572,10.89751-11.84839,10.89751s-11.84491-4.8803-11.84491-10.89751v-60.26109c.00715-1.09044.23243-10.94749,4.93389-21.30144.48625-1.06899,1.00468-2.10936,1.55169-3.11404h-36.23182c-10.55416,0-20.81516-1.91995-30.50058-5.70256-9.33143-3.64672-17.71907-8.85952-24.93034-15.48805-7.20773-6.63217-12.87456-14.3475-16.8395-22.92817-4.11511-8.90604-6.19953-18.34472-6.19953-28.05153s2.08442-19.14568,6.19953-28.05163c3.90779-8.46262,9.47448-16.08513,16.5427-22.65283-7.937-.69003-15.65961-2.49196-23.04618-5.37725-9.33136-3.64681-17.72252-8.85591-24.9303-15.48805-7.2077-6.62859-12.87447-14.34396-16.83947-22.92823-4.11515-8.90598-6.20312-18.34466-6.20312-28.0515s2.08797-19.14552,6.20312-28.0516c3.965-8.58421,9.63177-16.29606,16.83947-22.92814,7.20778-6.63214,15.59894-11.84133,24.9303-15.48808,9.68187-3.78261,19.9429-5.70253,30.50064-5.70253h46.86823c-6.90387-6.49627-12.34897-14.00434-16.19599-22.32751-4.11514-8.90607-6.19944-18.34476-6.19944-28.0516s2.0843-19.14556,6.19944-28.05153c3.96858-8.58424,9.63177-16.29606,16.84304-22.92462,7.20783-6.63214,15.59537-11.84488,24.92683-15.49169,9.68538-3.78258,19.94648-5.7025,30.50412-5.7025h34.11169c3.1462,0,5.70614-2.35616,5.70614-5.25208v-16.14589c0-6.01715,5.30566-10.89388,11.84842-10.89388s11.84845,4.87673,11.84845,10.89388v16.14589c0,14.91246-13.19275,27.04328-29.40301,27.04328h-34.11169c-30.20381,0-54.78023,22.59928-54.78023,50.37914s24.57642,50.37911,54.78023,50.37911h93.27164c6.54276,0,11.84845,4.8766,11.84845,10.89739,0,6.01721-5.30569,10.89384-11.84845,10.89384h-196.21788c-30.20384,0-54.78023,22.60282-54.78023,50.37911,0,27.77986,24.57638,50.37908,54.78023,50.37908h289.91136c5.53451,0,10.18593,3.48949,11.48728,8.2124-8.92025,3.29998-17.35787,7.85845-25.09118,13.57886h-228.03421c-30.20384,0-54.77661,22.59925-54.77661,50.37914Z"/>
      <path class="cls-1" d="m243.54688,434.08774h-4.19326c-6.54293,0-11.8468-4.87801-11.8468-10.89541s5.30387-10.89548,11.8468-10.89548h4.19326c-6.54289,0-11.8468,4.87798-11.8468,10.89548s5.30391,10.89541,11.8468,10.89541Z"/>
      <g>
        <path class="cls-1" d="m243.54832,412.29516h184.28004c-3.2106,6.95039-5.62388,14.25104-7.19342,21.79123h-31.71265c6.91099,6.4963,12.36328,14.0008,16.21384,22.32403,4.11869,8.90598,6.21026,18.3483,6.21026,28.05869,0,9.70681-2.09158,19.14559-6.21026,28.05511-3.96855,8.58424-9.64611,16.29613-16.86456,22.92817-7.222,6.62856-15.62031,11.83776-24.96249,15.48447-6.03145,2.35258-12.28102,3.98295-18.68792,4.88021v24.22246c0,6.01721-5.30569,10.89751-11.84842,10.89751s-11.84488-4.8803-11.84488-10.89751v-45.19495h11.84488c30.26106,0,54.88036-22.59922,54.88036-50.37547,0-27.78338-24.6193-50.38272-54.88036-50.38272h-89.22442c-6.54279,0-11.8484-4.8766-11.8484-10.89375s5.3056-10.89748,11.8484-10.89748Z"/>
        <path class="cls-1" d="m552.15829,382.23784c-.42548,1.33009-.89742,2.64935-1.40867,3.95785-.50052,1.26926-1.0368,2.53133-1.616,3.7791-.01073.025-.02149.04643-.03576.07146-3.965,8.5556-9.62819,16.24245-16.8288,22.85667-7.21846,6.62856-15.62031,11.84133-24.96253,15.4845-9.69611,3.78264-19.97142,5.69895-30.53634,5.69895h-32.61716c2.10579-7.71537,5.37364-15.04826,9.71754-21.79123h22.89962c21.50168,0,40.15741-11.40867,49.15638-27.98355.71142-1.3086,1.36218-2.64932,1.94846-4.02219.56492-1.31933,1.07259-2.6672,1.51593-4.04014,7.91567.85811,15.5703,2.88168,22.76733,5.98857Z"/>
        <path class="cls-1" d="m476.77019,311.54057H174.1774c-6.54267,0-11.84481-4.88027-11.84481-10.89742s5.30214-10.89388,11.84481-10.89388h232.86432c30.20388,0,54.78026-22.60285,54.78026-50.37908,0-27.7798-24.57638-50.37911-54.78026-50.37911h-93.27512c-6.54273,0-11.84845-4.87667-11.84845-10.89739,0-6.01718,5.30572-10.89384,11.84845-10.89384h37.93c7.20061,0,12.67435-1.85561,16.72509-5.66322,4.61572-4.34396,6.80734-10.61496,7.83345-15.11624,1.15124-5.03399,1.11187-8.95247,1.11187-8.99178l-.00358-.23958v-52.66365c0-6.01715,5.30575-10.89388,11.84845-10.89388s11.84485,4.87673,11.84485,10.89388v52.57785c.01791,1.13697.00361,6.71078-1.61245,13.78983-1.36927,6.00999-3.54661,11.50516-6.4319,16.30679h14.02934c10.5578,0,20.8188,1.91992,30.50064,5.70253,9.33146,3.64681,17.72258,8.85597,24.93034,15.48805,7.2113,6.62856,12.87813,14.34402,16.83953,22.92823,4.11514,8.90595,6.20305,18.34469,6.20305,28.05153s-2.08791,19.14556-6.20305,28.05153c-3.84341,8.32681-9.29212,15.83131-16.19596,22.32755h13.65393c10.56492,0,20.84023,1.91637,30.53634,5.69902,9.34222,3.64675,17.74407,8.85594,24.96253,15.48444,7.22203,6.63211,12.89601,14.34399,16.86456,22.92823,3.69321,7.9764,5.75617,16.38186,6.14586,25.02329-7.82269-2.80661-16.00645-4.64785-24.40833-5.47374-4.41549-23.73973-26.99685-41.86994-54.10096-41.86994Z"/>
      </g>
    </g>
    <g>
      <path class="cls-1" d="m552.64758,381.0883c-7.68431-3.35393-15.9901-5.55386-24.69337-6.3759-2.55113-.24319-5.13704-.36672-7.74997-.36672-27.63819,0-52.04982,13.81332-66.7045,34.91732-4.93251,7.09774-8.75738,15.02517-11.23133,23.5239-2.09961,7.2097-3.22268,14.83231-3.22268,22.71733,0,44.82101,36.3376,81.15861,81.15851,81.15861s81.15858-36.3376,81.15858-81.15861c0-33.28859-20.04266-61.89547-48.71524-74.41592Zm-40.36314,119.75787c-3.22657,0-6.26789-1.24664-8.56815-3.50837l-32.4897-31.9724c-4.48861-4.41919-4.55041-11.67127-.12733-16.15998,4.41919-4.49247,11.66738-4.55044,16.15991-.13116l24.99829,24.60073,48.80396-48.85804c4.49639-4.44234,11.74844-4.39597,16.17538.08878,4.42687,4.48485,4.38054,11.73696-.10424,16.16384l-56.25675,56.24132c-2.30797,2.28093-5.35319,3.53143-8.58364,3.53529h-.00772Z"/>
      <path class="cls-1" d="m580.776,394.93252c-7.78084-7.78081-16.8006-13.88278-26.60776-18.11679-7.76926-3.3539-16.03252-5.5384-24.57758-6.46474-3.09538-.33573-6.22928-.50551-9.38642-.50551-22.87936,0-44.39252,8.90773-60.57173,25.08704-4.40758,4.40758-8.27489,9.20892-11.56709,14.33047-4.68929,7.27913-8.21695,15.19508-10.4902,23.5239-1.99928,7.3062-3.02978,14.93266-3.02978,22.71733,0,22.87945,8.90786,44.38866,25.08707,60.56787,16.17921,16.17927,37.69237,25.09093,60.57173,25.09093s44.39255-8.91166,60.57176-25.09093c16.17918-16.17921,25.08707-37.68842,25.08707-60.56787,0-22.88325-8.90789-44.39252-25.08707-60.57169Zm-60.57176,137.22619c-42.26976,0-76.65444-34.3886-76.65444-76.6545,0-7.90434,1.20419-15.53466,3.43499-22.71733,2.66695-8.57979,6.80439-16.52265,12.11899-23.5239,14.01011-18.46789,36.18711-30.41701,61.10045-30.41701,1.89893,0,3.78233.06942,5.6465.2084,8.83455.64451,17.25604,2.79422,25.01375,6.19066,27.05156,11.85272,45.99418,38.88493,45.99418,70.25918,0,42.2659-34.38465,76.6545-76.65444,76.6545Z"/>
    </g>
  </g>
  <path class="cls-1" d="m490.39253,516.44774c-43.90588,38.9834-101.65601,62.7002-164.85034,62.7002-137.06494,0-248.57568-111.51074-248.57568-248.57617s111.51074-248.5752,248.57568-248.5752,248.57617,111.51074,248.57617,248.5752c0,25.13818-3.7644,49.41089-10.73584,72.29956l16.74219,18.83472c10.30811-28.85693,15.6792-59.58276,15.6792-91.13428,0-72.18945-28.1123-140.05762-79.1582-191.10254-51.04541-51.0459-118.91406-79.1582-191.10352-79.1582s-140.05762,28.1123-191.10303,79.1582c-51.04565,51.04492-79.15771,118.91309-79.15771,191.10254s28.11206,140.05859,79.15771,191.10352c51.04541,51.0459,118.91357,79.1582,191.10303,79.1582,69.27222,0,134.55591-25.90015,184.82361-73.09644l-19.97327-11.28931Z"/>
</svg>